<mxfile host="app.diagrams.net" modified="2024-05-15T13:56:33.975Z" agent="Mozilla/5.0 (Windows NT 10.0; Win64; x64) AppleWebKit/537.36 (KHTML, like Gecko) Chrome/109.0.0.0 Safari/537.36" version="24.4.0" etag="71j8jqvw5NThOI8J3u3d" type="github">
  <diagram name="PÃ¡gina-1" id="vO19-UdbVt8ZK8FEFtI0">
    <mxGraphModel>
      <root>
        <mxCell id="0" />
        <mxCell id="1" parent="0" />
      </root>
    </mxGraphModel>
  </diagram>
</mxfile>
